<?xml version="1.0" encoding="UTF-8"?>
<svg id="_图层_1" data-name="图层 1" xmlns="http://www.w3.org/2000/svg" viewBox="0 0 219.08 144.85">
  <defs>
    <style>
      <!-- .cls-1 {
        fill: none;
      }

      .cls-1, .cls-2 {
        stroke: #231815;
        stroke-miterlimit: 10;
      }

      .cls-2 {
        fill: #231815;
      } -->
      .cls-300 {
        fill: #ffa68f;
      }      
    </style>
  </defs>
  <path class="cls-1" d="m109.52,125.92c-21.79,0-41.04-12.4-49.05-31.6l-.04-.1c-2.4-5.79-3.62-11.91-3.62-18.2,0-2.14.15-4.33.45-6.52l.13-.93c1.37-8.65,5.16-16.84,10.94-23.69l17.21-23.36c.77-1.05,1.44-2.31,2.1-3.99,2.96-7.58,11.63-15.63,21.87-15.63s18.93,7.92,21.91,15.74c.57,1.5,1.22,2.74,2,3.79l17.3,23.48c5.5,6.5,9.21,14.3,10.72,22.51l.03.08v.05c.5,2.74.76,5.62.76,8.47,0,6.3-1.22,12.42-3.62,18.21l-.04.1c-8.01,19.19-27.26,31.58-49.05,31.58Z"/>
  <path class="cls-2" d="m109.52,138.78c-28.9,0-50.94-12.82-53.58-31.18-1.36-8.98-.43-25.9,1.23-37.18h0c-.29,2.14-.34,4.64-.34,6.74,0,6.19,1.48,11.97,3.86,17.66l.19.44c7.87,18.77,27.3,30.66,48.65,30.66s40.77-11.88,48.64-30.64l.06-.14c2.38-5.69,3.99-11.74,3.99-17.94,0-2.79-.09-5.9-.6-8.67h0c2.52,8,3.27,29.87,1.47,39.1h0c-3.68,18.35-25.7,31.16-53.57,31.16Z"/>
  <path class="cls-3" d="m96,138.12c.31.08.42.45.22.69l-4.25,4.89c-.33.4-.92.64-1.61.65h-.05c-1.18,0-2.39-.62-3.32-1.69l-6.42-7.68c-.26-.32.03-.79.43-.68l7.5,2.16c.33.1.67.18,1.01.26l6.5,1.41Z"/>
  <path class="cls-4" d="m136.74,134.45c.71-.19,1.24.65.77,1.21l-5.77,6.99c-.94,1.09-2.15,1.7-3.33,1.7h-.05c-.69,0-1.28-.25-1.62-.66l-3.89-4.48c-.37-.42-.16-1.08.38-1.22l5.78-1.3c.4-.09.81-.2,1.2-.31l6.52-1.93Z"/>
  <path class="cls-300" d="m72.99,135.41c-2.24,0-5.35-6.46-5.64-7.22-.12-.31-.3-.79.08-1.05l.32-.22.38.3c.9.79,3.75,2.71,4.84,3.34,1.47.84,2.13,1.21,2.21,1.25.1.05.34.18.42.48.09.35-.09.68-.53,1.34-.7,1.04-1.18,1.68-1.94,1.77-.05,0-.09,0-.14,0Z"/>
  <path class="cls-300" d="m145.57,135.34s-.09,0-.14,0c-.78-.1-1.24-.74-1.94-1.77-.45-.67-.62-1-.53-1.34.08-.3.32-.43.41-.48.08-.04.75-.4,2.21-1.25,1.09-.62,3.94-2.55,4.84-3.34l.29-.26.41.18c.38.26.2.74.08,1.05-.29.76-3.4,7.22-5.64,7.22Z"/>
  <path class="cls-5" d="m88.02,15.4c-3.67-.13-20.51.93-42.64,8.46C25.03,30.78-2.24,27.99.72,25.11c2.55-2.48,4.83-3.94,9.59-6.5,11.1-6,7.91-4.34,12.1-6.45,9.1-4.59,31.71-3.27,49.24-1.73,8.09.71,12.93,1.57,17.11,4.07.41.25.13.41.06.54-.13.25-.44.37-.79.35Z"/>
  <path class="cls-6" d="m131.06,15.4c3.67-.13,20.51.93,42.64,8.46l7.25,2.02s12.69,4.44,18.84,10.93c1.23,1.3.55.66,9.6,9.29,3.94,3.76,6.04,5.5,7.97,8.24,1.31,1.87-10.67,1.95-23.14-2.24-8.7-2.92-17.36-6.77-24.14-12.05-16.47-12.82-36.18-21.98-39.01-24.65h0Z"/>
  <path class="cls-7" d="m131.06,15.4c3.67-.13,20.51.93,42.64,8.46,20.35,6.92,47.61,4.13,44.65,1.25-2.55-2.48-4.83-3.94-9.59-6.5-11.1-6-7.91-4.34-12.1-6.45-9.1-4.59-31.71-3.27-49.24-1.73-8.09.71-12.93,1.57-17.11,4.07-.41.25-.19.34-.12.48.13.25.51.43.86.42Z"/>
  <path class="cls-8" d="m101.36,29.36c-4.18,0-7.59-3.53-7.59-7.88s3.4-7.88,7.59-7.88,7.59,3.53,7.59,7.88-3.4,7.88-7.59,7.88Z"/>
  <path class="cls-9" d="m117.97,29.36c-4.18,0-7.59-3.53-7.59-7.88s3.4-7.88,7.59-7.88,7.59,3.53,7.59,7.88-3.4,7.88-7.59,7.88Z"/>
  <path class="cls-200" d="m106.5,14.6h-10.11l.67-.82c.15-.18,1.05-1.08,4.28-1.08h0c3.13,0,4.17.93,4.28,1.04l.87.86Z"/>
  <path class="cls-200" d="m123.1,14.6h-10.11l.67-.82c.15-.18,1.05-1.08,4.28-1.08h0c3.13,0,4.17.93,4.28,1.04l.87.86Z"/>
  <circle class="cls-200" cx="102.43" cy="22.79" r="2.83"/>
  <circle class="cls-200" cx="116.89" cy="22.79" r="2.83"/>
  <path class="cls-10" d="m109.66,76.98c-14.34,0-26.01-10.5-26.01-23.4s11.67-23.4,26.01-23.4,26.01,10.5,26.01,23.4-11.67,23.4-26.01,23.4Z"/>
  <ellipse class="cls-200" cx="101.01" cy="51.9" rx="4.25" ry="8.09"/>
  <ellipse class="cls-200" cx="118.31" cy="51.9" rx="4.25" ry="8.09"/>
  <path class="cls-400" d="m103.76,98.72c-2.92,0-4.79-.19-5.8-1.29-.19-.21-.46-.66-.14-1.39.92-2.09,6.35-5.32,11.69-5.32s10.79,3.22,11.7,5.33c.31.73.04,1.18-.16,1.38h0c-1.28,1.36-3.88,1.33-8.17,1.26-1.02-.02-2.15-.03-3.37-.03s-2.35.02-3.37.03c-.86.01-1.65.03-2.38.03Z"/>
  <path class="cls-200" d="m113.32,1.49c1.97,1.78-.05.97-3.12.95-3.51-.02-5.02.7-3.19-.95.48-.43,1.41-.99,3.15-.99s2.68.56,3.15.99Z"/>
  <path class="cls-11" d="m87.51,15.61c-3.67-.13-20,.72-42.13,8.25l-7.25,2.02s-12.69,4.44-18.84,10.93c-1.23,1.3-.55.66-9.6,9.29-3.94,3.76-6.04,5.5-7.97,8.24-1.31,1.87,10.67,1.95,23.14-2.24,8.7-2.92,17.36-6.77,24.14-12.05,16.47-12.82,36.23-21.69,39.06-24.36l-.56-.09Z"/>
  <path class="cls-12" d="m179.63,83.99c6.25,15.05,9.3,18.12,10.99,15.93,2.4-3.11,5.5-21.22,4.17-27.13-3.42-15.2-14-24.58-18.53-28.58l-6.19-4.16c-16.47-12.82-36.18-21.98-39.01-24.65h0l.37,2.24c.57,1.5,1.22,2.74,2,3.79l17.3,23.48c2.94,3.47,5.39,7.36,7.24,11.44.12.26.27.5.46.72,2.39,2.72,19.09,21.83,21.2,26.91Z"/>
  <path class="cls-13" d="m68.33,44.89l17.21-23.36c.77-1.05,1.44-2.31,2.1-3.99l.42-1.84c-2.83,2.67-22.58,11.53-39.06,24.36l-6.19,4.16c-4.53,4-15.11,13.38-18.53,28.58-1.33,5.91,1.77,24.02,4.17,27.13,1.69,2.19,4.74-.89,10.99-15.93,2.25-5.43,13.06-16.19,21.17-26.82.15-.19.28-.39.39-.61.83-1.55,4.6-8.44,7.32-11.67Z"/>
</svg>